Coordinates
version=1
nRows=8
nColumns=36
inDegrees=yes

Units are S.I. units (second, meters, Newtons, ...)
If the header above contains a line with 'inDegrees', this indicates whether rotational values are in degrees (yes) or radians (no).

endheader
time	pelvis_tilt	pelvis_list	pelvis_rotation	pelvis_tx	pelvis_ty	pelvis_tz	hip_flexion_r	hip_adduction_r	hip_rotation_r	knee_angle_r	knee_angle_r_beta	ankle_angle_r	subtalar_angle_r	mtp_angle_r	hip_flexion_l	hip_adduction_l	hip_rotation_l	knee_angle_l	knee_angle_l_beta	ankle_angle_l	subtalar_angle_l	mtp_angle_l	lumbar_extension	lumbar_bending	lumbar_rotation	arm_flex_r	arm_add_r	arm_rot_r	elbow_flex_r	pro_sup_r	arm_flex_l	arm_add_l	arm_rot_l	elbow_flex_l	pro_sup_l
      2.91666670	    -22.08138253	      0.22999207	      3.42668763	      0.72481039	      0.76348942	      0.06031029	     75.79821431	     -3.59419804	      1.41161823	     88.09571664	      1.53756031	     21.18548082	    -31.15345018	     -7.49999987	     71.68315330	    -29.42358287	    -20.72233391	     87.58435886	      1.52863544	     24.60481752	     -0.30931561	     -7.49999987	    -54.42154489	     -8.86656045	      5.08250869	     40.27812564	     -8.71998949	      2.90805836	     90.18867940	    103.78724522	     54.80820390	    -19.00176991	     19.22289351	    124.77692286	     97.38544251
      2.93333330	    -19.47031023	      0.95772401	      2.93986960	      0.72901859	      0.77103904	      0.05178722	     71.81667428	     -4.12261982	      2.34269264	     86.55519123	      1.51067307	     20.67146609	    -31.32509234	     -7.49999987	     66.51415023	    -28.33418561	    -22.28331680	     85.68677381	      1.49551633	     25.21045379	     -0.68627638	     -7.49999987	    -55.23065469	     -8.50810508	      6.18845379	     33.83164973	     -8.58848511	     -1.50892256	     81.02511973	    102.35060295	     45.01917514	    -19.94116928	     17.71635949	    120.92016238	     96.90600543
      2.95000000	    -17.40140403	      1.60097195	      2.95934556	      0.72603629	      0.80549033	      0.05114866	     67.76267508	     -5.06228576	      2.84153086	     83.53178410	      1.45790466	     18.89360804	    -31.68055839	     -7.49999987	     61.75674565	    -26.29065378	    -23.66806615	     82.36300174	      1.43750556	     24.41924543	     -1.46642539	     -7.49999987	    -55.60916733	     -8.02590518	      5.54116013	     29.03643846	     -8.15103231	     -2.71292234	     70.47689627	     97.29444822	     35.27430584	    -22.00922939	     15.24928354	    116.64597837	     93.83280543
      2.96666670	    -15.07505393	      2.25177636	      2.56376374	      0.73128582	      0.82546735	      0.03642277	     63.56916625	     -6.07593051	      3.46912753	     80.73221263	      1.40904292	     17.60040313	    -31.36245933	     -7.49999987	     56.99072843	    -23.97988766	    -24.60243787	     79.25030169	      1.38317870	     23.52316056	     -3.20993590	     -7.49999987	    -54.83688983	     -7.20772832	      4.90611753	     22.46504070	     -8.75456370	     -3.93976838	     63.27641840	     94.69910276	     23.31034656	    -22.75013376	      9.63358753	    112.53749181	     93.32556087
      2.98333330	    -12.50649956	      2.61515764	      2.41075496	      0.75978398	      0.85040596	      0.03332718	     57.13640974	     -6.99911516	      3.41367004	     76.50208055	      1.33521319	     16.38113191	    -31.46527177	     -7.49999987	     51.05650766	    -21.67305307	    -25.01118692	     75.43253913	      1.31654617	     21.86489257	     -5.11177214	     -7.49999987	    -53.58868040	     -6.64472351	      3.97685667	     14.32738480	     -8.77880306	     -5.54822216	     56.50038507	     91.47115655	     11.32914380	    -23.38145756	      6.58885992	    108.56176527	     93.54617253
      3.00000000	    -11.15013150	      2.91193926	      2.55038625	      0.76455046	      0.87289706	      0.02870923	     51.96115157	     -8.08351886	      2.96927364	     72.01759497	      1.25694415	     15.19477244	    -31.28140853	     -7.49999987	     46.52151411	    -18.99105087	    -25.04984319	     71.03772900	      1.23984226	     20.20702533	     -6.89786431	     -7.49999987	    -50.59102685	     -6.01916036	      3.31105764	      5.33110408	     -9.59123382	     -7.17131995	     53.25662357	     90.44462223	      0.09992022	    -23.77267223	      3.66790295	    107.89563789	     97.44859270
      3.01666670	    -11.24077586	      3.03002363	      2.49779412	      0.76421769	      0.88934230	      0.02817478	     49.24604669	     -8.53753119	      2.66488907	     67.90265825	      1.18512496	     13.43916496	    -31.11408453	     -7.49999987	     43.90673529	    -16.67308096	    -24.59812798	     66.36828454	      1.15834508	     18.13624883	     -9.38807000	     -7.49999987	    -46.73411321	     -6.08270660	      3.04025232	     -3.93653603	    -10.13262184	     -9.73111060	     53.89512101	     87.62834671	    -11.88285449	    -23.31342954	      1.25619939	    112.30913582	     95.79471091
      3.03333330	    -12.23176008	      2.85718165	      2.56914697	      0.76802803	      0.91434009	      0.02646102	     47.07762514	     -8.78458229	      1.83768907	     62.65392587	      1.09351730	     11.00707351	    -30.48332924	     -7.49999987	     42.30822326	    -14.55102385	    -23.74280455	     61.11988347	      1.06674321	     14.53268542	    -11.89471813	     -7.49999987	    -42.33878385	     -6.12589103	      2.37293933	    -12.86468675	    -10.68792560	    -11.06668231	     55.86535358	     86.61585086	    -22.90750664	    -22.59317657	      0.62449542	    117.58128604	     95.84550456
